<svg width="128" height="128" viewBox="0 0 128 128" fill="none" xmlns="http://www.w3.org/2000/svg">
<path d="M104.53 75.3032C104.701 74.7247 105.007 74.2353 105.448 73.8349C105.888 73.4398 106.398 73.1692 106.978 73.0232C107.561 72.8841 108.15 72.9024 108.745 73.078L109.493 73.2992C109.551 73.3164 109.573 73.3516 109.557 73.4047L109.016 75.2356C109.003 75.278 108.968 75.2906 108.91 75.2734L108.161 75.0522C107.806 74.9471 107.463 74.9755 107.132 75.1375C106.807 75.301 106.595 75.55 106.496 75.8843C106.395 76.2239 106.44 76.5516 106.629 76.8673C106.824 77.1845 107.094 77.3941 107.439 77.496C107.837 77.6137 108.261 77.4564 108.712 77.0241C108.79 76.9549 108.887 76.8623 109.002 76.7463C109.121 76.6371 109.258 76.5046 109.414 76.3486C109.57 76.1927 109.721 76.0413 109.869 75.8944C110.021 75.749 110.167 75.6074 110.306 75.4696C110.832 74.9787 111.4 74.665 112.012 74.5284C112.627 74.3987 113.264 74.4311 113.922 74.6255C114.527 74.8044 115.03 75.1145 115.43 75.556C115.825 75.9959 116.093 76.4962 116.233 77.057C116.377 77.6246 116.366 78.1897 116.199 78.7522C116.029 79.3307 115.728 79.819 115.299 80.2173C114.864 80.6139 114.363 80.8842 113.796 81.028C113.227 81.1772 112.642 81.1631 112.042 80.9859L110.705 80.5906C110.663 80.5781 110.648 80.5506 110.66 80.5081L111.201 78.6773C111.214 78.6348 111.241 78.6198 111.284 78.6324L112.626 79.0117C113.008 79.1247 113.354 79.097 113.663 78.9288C113.973 78.7605 114.176 78.5119 114.273 78.1829C114.372 77.8485 114.329 77.5243 114.145 77.2102C113.961 76.8961 113.694 76.6873 113.343 76.5838C112.988 76.4787 112.669 76.4652 112.386 76.5432C112.102 76.6265 111.791 76.8377 111.454 77.1767C111.421 77.2129 111.339 77.2954 111.208 77.4242C111.078 77.553 110.932 77.6946 110.771 77.849C110.614 78.0102 110.47 78.1552 110.339 78.284C110.214 78.4144 110.139 78.4932 110.114 78.5203C109.651 78.9722 109.154 79.2896 108.621 79.4725C108.086 79.6608 107.498 79.66 106.855 79.4702C106.235 79.2867 105.72 78.9787 105.311 78.5463C104.904 78.1085 104.628 77.6059 104.484 77.0382C104.34 76.4706 104.355 75.8923 104.53 75.3032Z" fill="white" fill-opacity="0.9"/>
<path d="M100.762 84.8176L103.237 79.9111C103.256 79.8716 103.291 79.8643 103.341 79.8892L113.746 85.1557C113.796 85.1807 113.808 85.2178 113.783 85.2672L112.931 86.9571C112.906 87.0065 112.869 87.0187 112.819 86.9938L104.207 82.6318L102.63 85.7595C102.605 85.8089 102.568 85.8212 102.518 85.7962L100.799 84.929C100.749 84.9041 100.737 84.867 100.762 84.8176Z" fill="white" fill-opacity="0.9"/>
<path d="M97.7836 88.965C98.1507 88.4864 98.6122 88.1395 99.168 87.9242C99.7204 87.7133 100.295 87.6415 100.892 87.709C101.49 87.7841 102.035 88.0103 102.527 88.3876L106.791 91.6801C107.291 92.0641 107.649 92.5301 107.863 93.0781C108.085 93.6251 108.162 94.1932 108.093 94.7824C108.029 95.3749 107.815 95.9083 107.451 96.3825C107.074 96.8742 106.615 97.2228 106.074 97.4283C105.529 97.6382 104.962 97.705 104.371 97.6289C103.782 97.5604 103.239 97.3359 102.743 96.9552L98.4591 93.6891C97.9674 93.3119 97.6083 92.8481 97.3819 92.2977C97.1544 91.7396 97.071 91.1664 97.1317 90.5783C97.1924 89.9901 97.4097 89.4523 97.7836 88.965ZM99.4103 90.213C99.2014 90.4852 99.1293 90.8065 99.1938 91.1769C99.2628 91.5507 99.4356 91.8437 99.7122 92.0559L103.996 95.322C104.295 95.551 104.62 95.6503 104.971 95.6199C105.322 95.5894 105.609 95.4293 105.831 95.1395C106.044 94.8629 106.124 94.5483 106.074 94.1958C106.024 93.8433 105.845 93.5491 105.538 93.3133L101.263 90.0341C100.969 89.8084 100.639 89.7118 100.272 89.7443C99.9097 89.7802 99.6225 89.9364 99.4103 90.213Z" fill="white" fill-opacity="0.9"/>
<path d="M92.058 95.2387C92.5169 94.8304 93.0315 94.5761 93.6017 94.4761C94.1761 94.3723 94.748 94.4115 95.3176 94.5936C95.8829 94.7794 96.3772 95.11 96.8002 95.5853L100.382 99.6096C100.794 100.073 101.055 100.595 101.167 101.178C101.285 101.761 101.258 102.334 101.084 102.896C100.914 103.462 100.606 103.944 100.159 104.341C99.6921 104.757 99.1711 105.021 98.5963 105.132C98.0178 105.24 97.4497 105.201 96.8922 105.015C96.3305 104.834 95.8381 104.505 95.415 104.03L94.8962 103.447C94.8668 103.414 94.8728 103.379 94.9141 103.342L96.3403 102.073C96.3733 102.044 96.4046 102.045 96.434 102.078L96.8645 102.562C97.1514 102.885 97.4797 103.07 97.8492 103.119C98.2187 103.168 98.5399 103.071 98.8127 102.828C99.0566 102.611 99.1835 102.317 99.1934 101.945C99.2033 101.573 99.0868 101.251 98.844 100.978L95.2625 96.9539C95.016 96.677 94.7096 96.52 94.3433 96.483C93.9807 96.4501 93.6733 96.5459 93.4211 96.7703C93.1483 97.0131 93.0074 97.3126 92.9984 97.6688C92.9931 98.0291 93.1174 98.3518 93.3712 98.6371L93.9286 99.2634L94.8153 98.4742C94.8608 98.4337 94.9019 98.4342 94.9387 98.4755L96.2025 99.8955C96.2392 99.9368 96.2349 99.9777 96.1894 100.018L93.8146 102.132C93.7815 102.161 93.7466 102.155 93.7098 102.114L91.8335 100.006C91.4104 99.5303 91.1394 99.001 91.0205 98.4179C90.9057 97.8311 90.9331 97.2585 91.1028 96.7C91.2725 96.1416 91.5909 95.6545 92.058 95.2387Z" fill="white" fill-opacity="0.9"/>
<path d="M89.3028 98.0359L93.6317 109.086C93.6455 109.13 93.6336 109.163 93.5959 109.186L91.4967 110.479C91.459 110.502 91.4238 110.498 91.3912 110.466L83.5424 101.583C83.5086 101.539 83.513 101.504 83.5554 101.478L85.1598 100.49C85.2069 100.461 85.2474 100.468 85.2811 100.513L86.0895 101.477L88.0615 100.263L87.5641 99.1067C87.5398 99.0567 87.5488 99.0186 87.5912 98.9925L89.2028 98.0001C89.2404 97.9769 89.2738 97.9888 89.3028 98.0359ZM90.5774 106.454L88.7249 101.989L87.3325 102.846L90.429 106.545L90.8446 107.03L90.5774 106.454Z" fill="white" fill-opacity="0.9"/>
<path d="M80.5632 102.844L82.1542 102.24C82.237 102.208 82.2921 102.229 82.3196 102.301L86.4438 113.122C86.4752 113.204 86.4495 113.262 86.3667 113.293L84.931 113.838L79.869 108.594L82.2763 114.703C82.3077 114.786 82.2768 114.845 82.1837 114.88L80.6083 115.478C80.5462 115.502 80.4994 115.472 80.468 115.39L76.338 104.554C76.3144 104.492 76.3285 104.451 76.3802 104.431L77.7772 103.901L82.7529 108.707L80.4629 103.024C80.4315 102.941 80.4649 102.881 80.5632 102.844Z" fill="white" fill-opacity="0.9"/>
<path d="M66.518 111.112L69.7932 110.833C69.8484 110.828 69.8778 110.848 69.8816 110.892L70.0385 112.736C70.0422 112.781 70.0165 112.805 69.9614 112.81L66.6861 113.088C66.631 113.093 66.6015 113.073 66.5978 113.029L66.4409 111.185C66.4371 111.141 66.4628 111.116 66.518 111.112Z" fill="white" fill-opacity="0.9"/>
<path d="M56.1813 105.432C56.7743 105.543 57.2925 105.797 57.7361 106.196C58.1742 106.593 58.4956 107.072 58.7003 107.634C58.8986 108.2 58.9408 108.788 58.827 109.397L58.6837 110.164C58.6726 110.224 58.6398 110.249 58.5854 110.239L56.7086 109.888C56.6651 109.88 56.649 109.846 56.6601 109.786L56.8034 109.019C56.8715 108.655 56.808 108.316 56.613 108.004C56.417 107.697 56.1476 107.512 55.8049 107.448C55.4568 107.383 55.1354 107.461 54.8408 107.681C54.5452 107.908 54.3644 108.198 54.2984 108.551C54.2222 108.959 54.4222 109.365 54.8984 109.769C54.9753 109.84 55.0773 109.927 55.2045 110.029C55.3253 110.136 55.4712 110.259 55.6423 110.398C55.8134 110.537 55.9795 110.672 56.1407 110.804C56.3009 110.941 56.4567 111.071 56.6081 111.195C57.1503 111.668 57.5207 112.201 57.7193 112.796C57.9114 113.395 57.9445 114.031 57.8185 114.706C57.7027 115.326 57.4457 115.858 57.0476 116.301C56.6505 116.74 56.1803 117.057 55.6369 117.254C55.087 117.455 54.5237 117.502 53.9471 117.394C53.3542 117.284 52.8376 117.035 52.3975 116.649C51.9583 116.257 51.6381 115.786 51.4368 115.237C51.2301 114.686 51.1841 114.103 51.2989 113.488L51.555 112.117C51.5631 112.074 51.5889 112.056 51.6325 112.064L53.5092 112.415C53.5527 112.423 53.5704 112.449 53.5623 112.492L53.3225 113.866C53.2494 114.258 53.3123 114.599 53.5114 114.889C53.7105 115.18 53.9787 115.357 54.3159 115.42C54.6586 115.484 54.9768 115.408 55.2703 115.193C55.5639 114.977 55.7442 114.69 55.8112 114.331C55.8793 113.967 55.8601 113.648 55.7535 113.374C55.6414 113.1 55.3995 112.813 55.0278 112.513C54.9883 112.483 54.8978 112.41 54.7563 112.293C54.6148 112.177 54.4591 112.046 54.289 111.902C54.1125 111.762 53.9534 111.634 53.812 111.517C53.6694 111.406 53.5834 111.339 53.5538 111.317C53.0569 110.903 52.6901 110.441 52.4535 109.929C52.2114 109.417 52.1518 108.831 52.2748 108.173C52.3937 107.537 52.6472 106.993 53.0354 106.542C53.4291 106.092 53.9009 105.766 54.4508 105.565C55.0007 105.364 55.5775 105.319 56.1813 105.432Z" fill="white" fill-opacity="0.9"/>
<path d="M46.3646 102.657L51.5022 104.607C51.5436 104.623 51.5545 104.657 51.5348 104.708L47.3812 115.606C47.3616 115.658 47.3259 115.674 47.2742 115.654L45.5047 114.983C45.453 114.963 45.437 114.928 45.4566 114.876L48.8974 105.856L45.6224 104.613C45.5707 104.593 45.5546 104.558 45.5743 104.506L46.2576 102.706C46.2772 102.654 46.3129 102.638 46.3646 102.657Z" fill="white" fill-opacity="0.9"/>
<path d="M41.9262 100.093C42.4387 100.411 42.8294 100.836 43.0985 101.368C43.3628 101.897 43.4909 102.462 43.4827 103.062C43.4669 103.665 43.2955 104.229 42.9686 104.756L40.1128 109.324C39.78 109.86 39.3515 110.261 38.8273 110.529C38.3049 110.804 37.7471 110.936 37.1541 110.926C36.5581 110.921 36.0062 110.76 35.4985 110.445C34.9719 110.118 34.5797 109.696 34.3218 109.177C34.0593 108.656 33.9368 108.098 33.9544 107.503C33.9643 106.91 34.1343 106.348 34.4641 105.817L37.2917 101.231C37.6187 100.705 38.0448 100.301 38.5702 100.022C39.1031 99.7405 39.6652 99.601 40.2565 99.6033C40.8478 99.6057 41.4044 99.7689 41.9262 100.093ZM40.8447 101.835C40.5532 101.654 40.2264 101.614 39.8642 101.714C39.499 101.82 39.2245 102.021 39.0406 102.317L36.213 106.902C36.0145 107.222 35.9478 107.555 36.0127 107.902C36.0777 108.248 36.2653 108.518 36.5756 108.71C36.8718 108.894 37.1928 108.944 37.5386 108.859C37.8845 108.774 38.1595 108.567 38.3639 108.238L41.2056 103.661C41.4012 103.346 41.4647 103.008 41.3962 102.646C41.3247 102.289 41.1409 102.019 40.8447 101.835Z" fill="white" fill-opacity="0.9"/>
<path d="M35.1487 95.0468C35.6016 95.4618 35.9067 95.9479 36.0642 96.5051C36.2258 97.0659 36.2449 97.6389 36.1216 98.224C35.9942 98.8053 35.7155 99.3305 35.2856 99.7997L31.6459 103.771C31.2272 104.228 30.7336 104.542 30.1653 104.711C29.5973 104.889 29.0248 104.92 28.4479 104.804C27.8673 104.692 27.3566 104.435 26.916 104.031C26.455 103.608 26.1398 103.117 25.9704 102.556C25.8048 101.992 25.7858 101.423 25.9135 100.849C26.0372 100.272 26.314 99.7486 26.744 99.2794L27.2711 98.7041C27.301 98.6715 27.3364 98.6739 27.3772 98.7113L28.7847 100.001C28.8174 100.031 28.8187 100.062 28.7888 100.095L28.3514 100.572C28.0598 100.891 27.9084 101.236 27.8972 101.608C27.8861 101.981 28.0151 102.291 28.2844 102.538C28.5251 102.758 28.8309 102.854 29.2018 102.826C29.5726 102.799 29.8815 102.65 30.1282 102.381L33.7679 98.4089C34.0184 98.1356 34.1434 97.8148 34.143 97.4466C34.1389 97.0826 34.0124 96.7865 33.7635 96.5584C33.4942 96.3117 33.182 96.2019 32.8267 96.2292C32.4678 96.2605 32.1593 96.4169 31.9013 96.6984L31.3349 97.3165L32.21 98.1185C32.2549 98.1596 32.2587 98.2006 32.2213 98.2414L30.937 99.6428C30.8996 99.6836 30.8585 99.6835 30.8136 99.6423L28.4697 97.4944C28.4371 97.4645 28.4395 97.4292 28.4769 97.3884L30.3836 95.3076C30.8136 94.8384 31.3125 94.5151 31.8806 94.3375C32.4527 94.1637 33.0251 94.1329 33.5979 94.245C34.1708 94.3571 34.6877 94.6244 35.1487 95.0468Z" fill="white" fill-opacity="0.9"/>
<path d="M32.0754 92.5779L21.5061 97.9759C21.4642 97.9939 21.4298 97.9853 21.403 97.9501L19.9095 95.9886C19.8826 95.9534 19.8835 95.918 19.912 95.8824L27.977 87.1955C28.0177 87.1576 28.0531 87.1584 28.0833 87.198L29.2248 88.6972C29.2583 88.7412 29.2548 88.7822 29.2141 88.8201L28.3341 89.7197L29.7371 91.5623L30.8384 90.9533C30.8858 90.9241 30.9245 90.9294 30.9547 90.969L32.1013 92.4747C32.1281 92.51 32.1195 92.5443 32.0754 92.5779ZM23.8246 94.6768L28.0846 92.3928L27.094 91.0918L23.719 94.5381L23.2774 94.9995L23.8246 94.6768Z" fill="white" fill-opacity="0.9"/>
<path d="M26.4396 84.4025L27.2002 85.9247C27.2398 86.0039 27.2249 86.0609 27.1556 86.0955L16.8046 91.2863C16.7254 91.3259 16.666 91.3061 16.6265 91.2269L15.94 89.8532L20.6485 84.2897L14.8122 87.2989C14.733 87.3385 14.6711 87.3137 14.6266 87.2246L13.8734 85.7173C13.8437 85.6579 13.8684 85.6084 13.9476 85.5688L24.3135 80.3705C24.3729 80.3409 24.4149 80.3508 24.4397 80.4003L25.1075 81.7368L20.826 87.1705L26.2503 84.3208C26.3295 84.2812 26.3926 84.3085 26.4396 84.4025Z" fill="white" fill-opacity="0.9"/>
<path d="M16.7973 71.3293L17.4009 74.5605C17.411 74.6149 17.3943 74.6462 17.3508 74.6543L15.5312 74.9942C15.4877 75.0023 15.4609 74.9792 15.4507 74.9248L14.8472 71.6935C14.837 71.6392 14.8537 71.6079 14.8972 71.5998L16.7168 71.2599C16.7603 71.2518 16.7872 71.2749 16.7973 71.3293Z" fill="white" fill-opacity="0.9"/>
<path d="M21.3917 60.4609C21.3405 61.0619 21.139 61.6029 20.7871 62.0839C20.4356 62.5594 19.9906 62.927 19.452 63.1867C18.9084 63.4403 18.3278 63.5409 17.7102 63.4884L16.9328 63.4223C16.8721 63.4171 16.8441 63.387 16.8488 63.3318L17.0106 61.4295C17.0144 61.3854 17.0466 61.3659 17.1072 61.3711L17.8847 61.4372C18.2541 61.4686 18.5845 61.3718 18.8758 61.1466C19.1615 60.921 19.3192 60.6345 19.3487 60.2871C19.3788 59.9342 19.2692 59.6222 19.0201 59.3511C18.7656 59.0795 18.4591 58.9285 18.1006 58.898C17.6871 58.8629 17.303 59.1023 16.9482 59.6164C16.8856 59.7 16.8096 59.8101 16.7202 59.9469C16.6257 60.0777 16.5179 60.2352 16.3967 60.4193C16.2756 60.6033 16.1576 60.7821 16.0429 60.9557C15.9226 61.1287 15.8084 61.2967 15.7001 61.4597C15.2837 62.0463 14.7896 62.468 14.2179 62.7248C13.6412 62.9757 13.011 63.072 12.3273 63.0139C11.6987 62.9604 11.1439 62.7577 10.6628 62.4058C10.1873 62.0543 9.82457 61.6181 9.57454 61.0969C9.31946 60.5699 9.21678 60.0141 9.26649 59.4296C9.31761 58.8286 9.51339 58.2898 9.85382 57.8134C10.1998 57.3374 10.6363 56.9719 11.1634 56.7168C11.6909 56.4562 12.2663 56.3524 12.8893 56.4054L14.2788 56.5236C14.323 56.5274 14.3431 56.5513 14.3394 56.5954L14.1776 58.4977C14.1738 58.5418 14.1499 58.562 14.1058 58.5583L12.7149 58.4566C12.3179 58.4228 11.9847 58.5195 11.7155 58.7465C11.4463 58.9735 11.2971 59.258 11.2681 59.5998C11.2385 59.9472 11.3455 60.2562 11.5891 60.5269C11.8326 60.7975 12.1364 60.9483 12.5003 60.9792C12.8697 61.0107 13.1851 60.9597 13.4464 60.8264C13.7081 60.6876 13.9698 60.4183 14.2315 60.0185C14.2573 59.9763 14.3211 59.8789 14.423 59.7265C14.5248 59.5741 14.639 59.4061 14.7657 59.2225C14.8874 59.0329 14.9991 58.8619 15.1009 58.7095C15.1973 58.5567 15.2551 58.4644 15.2744 58.4327C15.6366 57.897 16.0603 57.486 16.5456 57.1996C17.0314 56.9077 17.6079 56.7901 18.2751 56.8468C18.9202 56.9017 19.4865 57.0998 19.974 57.4412C20.461 57.7881 20.8321 58.2251 21.0871 58.7522C21.3422 59.2793 21.4437 59.8488 21.3917 60.4609Z" fill="white" fill-opacity="0.9"/>
<path d="M23.171 50.3414L21.7337 55.6452C21.7221 55.6879 21.6896 55.702 21.6362 55.6876L10.3839 52.6211C10.3305 52.6066 10.311 52.5727 10.3255 52.5192L10.8205 50.6926C10.835 50.6391 10.8689 50.6197 10.9224 50.6341L20.2358 53.1752L21.152 49.7942C21.1665 49.7408 21.2004 49.7214 21.2538 49.7358L23.1125 50.2395C23.166 50.254 23.1854 50.288 23.171 50.3414Z" fill="white" fill-opacity="0.9"/>
<path d="M25.1933 45.8117C24.9297 46.3543 24.5473 46.7868 24.046 47.1093C23.5472 47.4268 22.9987 47.6125 22.4003 47.6663C21.7994 47.7128 21.2203 47.6006 20.6628 47.3297L15.8245 44.9605C15.257 44.6848 14.8134 44.3001 14.4934 43.8062C14.1661 43.315 13.9768 42.7739 13.9255 42.1829C13.8693 41.5896 13.9717 41.0241 14.2329 40.4866C14.5038 39.9291 14.8837 39.4953 15.3727 39.1854C15.8641 38.8704 16.4065 38.691 17 38.6471C17.591 38.5958 18.1677 38.7068 18.7301 38.9801L23.5829 41.3194C24.1404 41.5903 24.5853 41.9726 24.9176 42.4662C25.2525 42.9673 25.4493 43.5121 25.5079 44.1004C25.5666 44.6888 25.4617 45.2593 25.1933 45.8117ZM23.3491 44.9158C23.4991 44.6072 23.5052 44.2779 23.3676 43.928C23.225 43.5757 22.9969 43.3234 22.6833 43.171L17.8305 40.8317C17.492 40.6673 17.1538 40.6352 16.8159 40.7356C16.478 40.836 16.2292 41.0504 16.0696 41.3789C15.9172 41.6925 15.9011 42.0169 16.0213 42.3521C16.1414 42.6874 16.3757 42.9396 16.7241 43.1089L21.5697 45.4632C21.9031 45.6252 22.2463 45.6535 22.599 45.548C22.9467 45.4401 23.1968 45.2293 23.3491 44.9158Z" fill="white" fill-opacity="0.9"/>
<path d="M29.5972 38.4175C29.2286 38.9089 28.7748 39.2603 28.2358 39.4717C27.6935 39.6876 27.1252 39.7628 26.5309 39.6975C25.9398 39.6278 25.3898 39.402 24.8807 39.0202L20.5709 35.7879C20.075 35.416 19.7148 34.9556 19.4901 34.4066C19.2577 33.8588 19.1708 33.2921 19.2294 32.7066C19.2837 32.1178 19.4901 31.5844 19.8487 31.1063C20.2239 30.606 20.6821 30.2441 21.2233 30.0205C21.7689 29.8003 22.3334 29.7255 22.9166 29.7964C23.5032 29.8628 24.0511 30.0869 24.5602 30.4687L25.1844 30.9369C25.2198 30.9635 25.2209 30.9989 25.1877 31.0431L24.0422 32.5705C24.0157 32.6059 23.9847 32.6103 23.9493 32.5838L23.4313 32.1953C23.086 31.9363 22.7274 31.8196 22.3555 31.845C21.9836 31.8705 21.6881 32.0293 21.469 32.3215C21.2731 32.5827 21.2072 32.8964 21.2714 33.2628C21.3356 33.6291 21.5138 33.9219 21.806 34.141L26.1158 37.3733C26.4124 37.5958 26.7439 37.6887 27.1102 37.6522C27.4721 37.6124 27.7544 37.4574 27.9569 37.1874C28.176 36.8952 28.2546 36.5737 28.1926 36.2228C28.1262 35.8686 27.9403 35.577 27.6348 35.3479L26.9641 34.8449L26.2519 35.7945C26.2154 35.8432 26.175 35.8509 26.1307 35.8177L24.61 34.6772C24.5657 34.644 24.5619 34.6031 24.5984 34.5544L26.5059 32.011C26.5325 31.9756 26.5679 31.9745 26.6122 32.0077L28.87 33.701C29.3791 34.0829 29.7499 34.5477 29.9823 35.0956C30.2114 35.6478 30.2983 36.2145 30.2429 36.7956C30.1876 37.3766 29.9723 37.9173 29.5972 38.4175Z" fill="white" fill-opacity="0.9"/>
<path d="M31.6186 35.2376L25.1734 25.2722C25.1512 25.2323 25.1563 25.1973 25.1886 25.167L26.9879 23.4817C27.0202 23.4514 27.0555 23.4486 27.0939 23.4734L36.5561 30.6128C36.598 30.6495 36.6007 30.6848 36.5644 30.7188L35.1891 32.0069C35.1488 32.0448 35.1076 32.0454 35.0658 32.0088L34.0813 31.2249L32.391 32.8081L33.1089 33.8416C33.1427 33.8858 33.1414 33.9249 33.1051 33.959L31.7238 35.2527C31.6915 35.283 31.6564 35.2779 31.6186 35.2376ZM28.6912 27.243L31.3967 31.2486L32.5902 30.1308L28.8185 27.1239L28.3145 26.7315L28.6912 27.243Z" fill="white" fill-opacity="0.9"/>
<path d="M39.2883 28.6934L37.8493 29.6016C37.7744 29.6489 37.7163 29.6398 37.675 29.5742L31.4807 19.7907C31.4334 19.7158 31.4473 19.6547 31.5221 19.6075L32.8208 18.7879L38.8248 22.9199L35.2503 17.4116C35.203 17.3367 35.2215 17.2727 35.3057 17.2196L36.7307 16.3202C36.7869 16.2848 36.8386 16.3045 36.8858 16.3794L43.089 26.177C43.1244 26.2331 43.1187 26.276 43.0719 26.3055L41.8084 27.103L35.976 23.3829L39.3508 28.4969C39.3981 28.5718 39.3773 28.6373 39.2883 28.6934Z" fill="white" fill-opacity="0.9"/>
<path d="M51.4015 17.7464L48.2457 18.6662C48.1926 18.6816 48.1598 18.6681 48.1474 18.6256L47.6295 16.8485C47.6171 16.806 47.6375 16.777 47.6906 16.7615L50.8464 15.8418C50.8995 15.8263 50.9323 15.8398 50.9447 15.8823L51.4626 17.6594C51.475 17.7019 51.4546 17.7309 51.4015 17.7464Z" fill="white" fill-opacity="0.9"/>
<path d="M62.281 21.2477C61.6779 21.2594 61.1189 21.1152 60.6039 20.8152C60.0944 20.515 59.6825 20.1106 59.3683 19.602C59.0595 19.0876 58.8991 18.5206 58.8871 17.901L58.8721 17.1208C58.8709 17.06 58.898 17.029 58.9533 17.0279L60.8621 16.9911C60.9064 16.9902 60.9291 17.0202 60.9303 17.0811L60.9454 17.8612C60.9525 18.2319 61.0832 18.5504 61.3374 18.8167C61.5915 19.0775 61.8928 19.2045 62.2414 19.1978C62.5955 19.191 62.8944 19.0496 63.1382 18.7737C63.3818 18.4922 63.5002 18.1717 63.4932 17.8121C63.4852 17.3971 63.2071 17.0399 62.6589 16.7406C62.5693 16.6869 62.4518 16.6228 62.3065 16.5481C62.1666 16.4678 61.9988 16.3769 61.8031 16.2755C61.6074 16.1742 61.4173 16.0754 61.2328 15.9794C61.0482 15.8778 60.8692 15.7816 60.6959 15.6908C60.0692 15.3376 59.5984 14.8901 59.2835 14.3482C58.974 13.8007 58.8127 13.1839 58.7995 12.4978C58.7873 11.8671 58.9312 11.2942 59.2312 10.7792C59.5313 10.2698 59.9275 9.8636 60.4198 9.56075C60.9176 9.25226 61.4597 9.09235 62.0461 9.08103C62.6492 9.06939 63.2054 9.2081 63.7146 9.49715C64.224 9.79174 64.6329 10.1879 64.9414 10.6856C65.2554 11.1832 65.4185 11.7446 65.4305 12.3698L65.4575 13.7641C65.4583 13.8084 65.4366 13.8309 65.3923 13.8318L63.4835 13.8686C63.4393 13.8695 63.4167 13.8478 63.4158 13.8035L63.3723 12.4096C63.3646 12.0112 63.2339 11.6899 62.9801 11.4458C62.7263 11.2016 62.4279 11.0828 62.0849 11.0894C61.7363 11.0962 61.4401 11.2347 61.1963 11.5051C60.9524 11.7755 60.834 12.0933 60.8411 12.4584C60.8482 12.8291 60.9317 13.1375 61.0914 13.3835C61.2566 13.6293 61.5517 13.8616 61.9766 14.0804C62.0213 14.1017 62.1247 14.155 62.2869 14.2404C62.449 14.3259 62.628 14.422 62.8238 14.529C63.025 14.6302 63.2067 14.7236 63.3688 14.809C63.5309 14.8889 63.6287 14.9368 63.6622 14.9528C64.2326 15.2573 64.6855 15.636 65.0208 16.0889C65.3616 16.5417 65.5385 17.1029 65.5514 17.7723C65.5639 18.4197 65.4258 19.0035 65.1369 19.5238C64.8425 20.0442 64.4465 20.4587 63.9488 20.7672C63.4511 21.0757 62.8951 21.2359 62.281 21.2477Z" fill="white" fill-opacity="0.9"/>
<path d="M72.7156 21.9615L67.2921 21.0768C67.2484 21.0697 67.231 21.0388 67.2399 20.9842L69.1338 9.47642C69.1427 9.4218 69.1745 9.39894 69.2291 9.40785L71.097 9.71252C71.1516 9.72143 71.1744 9.75319 71.1655 9.80781L69.5951 19.333L73.0523 19.8969C73.1069 19.9059 73.1298 19.9376 73.1209 19.9922L72.8109 21.8929C72.802 21.9475 72.7702 21.9704 72.7156 21.9615Z" fill="white" fill-opacity="0.9"/>
<path d="M77.5622 23.5321C76.9959 23.3244 76.5271 22.9875 76.1558 22.5213C75.7897 22.057 75.5497 21.5299 75.436 20.94C75.3293 20.3468 75.3826 19.7593 75.596 19.1774L77.4662 14.1252C77.6834 13.5329 78.0216 13.0528 78.4807 12.6847C78.9365 12.3096 79.4558 12.0668 80.0386 11.9563C80.6233 11.8407 81.1962 11.8857 81.7573 12.0914C82.3392 12.3048 82.809 12.6392 83.1666 13.0945C83.5294 13.5517 83.7625 14.0733 83.8659 14.6594C83.9764 15.2422 83.924 15.8271 83.7087 16.4142L81.8697 21.4778C81.6563 22.0597 81.3207 22.5408 80.863 22.9211C80.3982 23.3048 79.876 23.5553 79.2965 23.6729C78.717 23.7905 78.1389 23.7436 77.5622 23.5321ZM78.2681 21.6071C78.5902 21.7253 78.9184 21.6983 79.2526 21.5261C79.5888 21.3488 79.8169 21.0964 79.9369 20.7691L81.776 15.7055C81.9055 15.3522 81.9034 15.0125 81.7695 14.6864C81.6356 14.3603 81.3972 14.1343 81.0543 14.0086C80.727 13.8886 80.4026 13.9052 80.0812 14.0585C79.7597 14.2117 79.5323 14.4702 79.399 14.8339L77.5443 19.8918C77.4167 20.2399 77.4231 20.5841 77.5636 20.9244C77.7059 21.2596 77.9408 21.4871 78.2681 21.6071Z" fill="white" fill-opacity="0.9"/>
<path d="M85.2396 27.0863C84.713 26.7699 84.317 26.3545 84.0515 25.84C83.7813 25.3226 83.6483 24.765 83.6524 24.1671C83.6612 23.572 83.8295 23.0018 84.1572 22.4562L86.9313 17.8382C87.2505 17.3069 87.6716 16.9014 88.1947 16.6217C88.7159 16.3344 89.2707 16.19 89.8591 16.1884C90.4503 16.182 91.0021 16.3328 91.5144 16.6405C92.0505 16.9625 92.4574 17.3813 92.7352 17.8967C93.0102 18.417 93.1423 18.9708 93.1315 19.5583C93.1255 20.1486 92.9587 20.7165 92.6309 21.262L92.2292 21.9309C92.2064 21.9688 92.1712 21.9736 92.1238 21.9451L90.4872 20.9619C90.4493 20.9391 90.4417 20.9088 90.4645 20.8708L90.7979 20.3158C91.0202 19.9458 91.0996 19.5771 91.0362 19.2098C90.9728 18.8425 90.7846 18.5648 90.4715 18.3767C90.1916 18.2086 89.8727 18.1752 89.5149 18.2766C89.157 18.3779 88.8841 18.5852 88.696 18.8983L85.9219 23.5163C85.731 23.8341 85.6724 24.1734 85.7463 24.5341C85.8229 24.89 86.006 25.1549 86.2953 25.3287C86.6084 25.5168 86.9363 25.562 87.279 25.4644C87.6245 25.3621 87.8955 25.1473 88.0922 24.82L88.5239 24.1013L87.5063 23.4901C87.4542 23.4587 87.4423 23.4193 87.4708 23.3719L88.4497 21.7424C88.4782 21.695 88.5185 21.6869 88.5707 21.7183L91.296 23.3554C91.3339 23.3782 91.3386 23.4133 91.3101 23.4607L89.8568 25.8801C89.5291 26.4256 89.1047 26.842 88.5835 27.1293C88.0576 27.4137 87.5028 27.5582 86.9191 27.5626C86.3355 27.567 85.7756 27.4083 85.2396 27.0863Z" fill="white" fill-opacity="0.9"/>
<path d="M88.8742 28.9592L98.1602 21.5688C98.1977 21.5428 98.2331 21.5444 98.2664 21.5736L100.12 23.1991C100.153 23.2283 100.159 23.2632 100.139 23.3038L93.9603 33.4199C93.928 33.4652 93.8931 33.4714 93.8557 33.4385L92.439 32.1961C92.3974 32.1596 92.3928 32.1187 92.4251 32.0735L93.1088 31.017L91.3677 29.4899L90.4094 30.3056C90.3687 30.3436 90.3297 30.3461 90.2922 30.3133L88.8694 29.0654C88.8361 29.0362 88.8377 29.0008 88.8742 28.9592ZM96.5435 25.2628L92.8222 28.3476L94.0516 29.4259L96.6745 25.3777L97.0156 24.8377L96.5435 25.2628Z" fill="white" fill-opacity="0.9"/>
<path d="M96.1235 35.9491L95.0778 34.6066C95.0234 34.5368 95.0268 34.478 95.0879 34.4304L104.213 27.3019C104.283 27.2475 104.345 27.2552 104.4 27.325L105.343 28.5365L101.823 34.9187L106.952 30.8185C107.022 30.7641 107.088 30.7762 107.149 30.8548L108.184 32.1842C108.225 32.2366 108.211 32.29 108.141 32.3444L99.0023 39.4832C98.9499 39.524 98.9067 39.5225 98.8727 39.4789L97.9546 38.3001L101.082 32.1294L96.3252 35.9919C96.2553 36.0463 96.1881 36.0321 96.1235 35.9491Z" fill="white" fill-opacity="0.9"/>
<path d="M108.162 46.8148L106.927 43.7686C106.906 43.7173 106.916 43.6833 106.957 43.6667L108.673 42.9712C108.714 42.9545 108.745 42.9719 108.765 43.0231L110.001 46.0694C110.021 46.1207 110.011 46.1546 109.97 46.1713L108.255 46.8668C108.214 46.8834 108.183 46.8661 108.162 46.8148Z" fill="white" fill-opacity="0.9"/>
<path d="M105.807 58.2735C105.737 57.6744 105.827 57.1041 106.076 56.5626C106.326 56.0266 106.689 55.5778 107.165 55.2161C107.647 54.8592 108.196 54.6451 108.812 54.5736L109.587 54.4835C109.647 54.4765 109.681 54.5005 109.687 54.5555L109.907 56.4519C109.912 56.4959 109.885 56.5214 109.824 56.5284L109.049 56.6184C108.681 56.6612 108.376 56.8219 108.136 57.1005C107.901 57.3785 107.803 57.6907 107.843 58.037C107.884 58.3888 108.054 58.6727 108.352 58.8888C108.655 59.1043 108.986 59.1912 109.343 59.1497C109.755 59.1018 110.084 58.7907 110.329 58.2162C110.374 58.1219 110.427 57.9988 110.487 57.8469C110.554 57.6999 110.628 57.5242 110.71 57.3197C110.792 57.1151 110.872 56.9164 110.95 56.7235C111.033 56.53 111.112 56.3426 111.185 56.1614C111.477 55.5036 111.877 54.9919 112.386 54.6264C112.901 54.2657 113.5 54.0458 114.181 53.9666C114.808 53.8938 115.392 53.982 115.933 54.2311C116.469 54.4808 116.912 54.8361 117.261 55.297C117.616 55.7627 117.827 56.2869 117.895 56.8696C117.964 57.4687 117.88 58.0357 117.641 58.5704C117.397 59.1057 117.042 59.5508 116.576 59.9058C116.111 60.2662 115.568 60.4825 114.946 60.5546L113.561 60.7155C113.517 60.7206 113.493 60.7012 113.488 60.6572L113.267 58.7608C113.262 58.7168 113.282 58.6923 113.326 58.6872L114.709 58.5098C115.105 58.4638 115.412 58.3028 115.631 58.0267C115.849 57.7506 115.939 57.4422 115.899 57.1013C115.859 56.755 115.693 56.4735 115.4 56.2568C115.107 56.0401 114.78 55.9528 114.417 55.995C114.049 56.0377 113.75 56.1504 113.52 56.3331C113.291 56.5212 113.089 56.8373 112.912 57.2812C112.895 57.3277 112.852 57.4358 112.782 57.6054C112.713 57.7751 112.634 57.9625 112.547 58.1676C112.465 58.3776 112.39 58.5675 112.32 58.7371C112.256 58.9061 112.218 59.008 112.205 59.0429C111.957 59.64 111.624 60.1272 111.205 60.5045C110.787 60.8873 110.246 61.1173 109.581 61.1946C108.938 61.2693 108.343 61.1879 107.797 60.9504C107.251 60.7075 106.8 60.3531 106.446 59.8874C106.091 59.4217 105.878 58.8837 105.807 58.2735Z" fill="white" fill-opacity="0.9"/>
</svg>
