<svg width="160" height="61" viewBox="0 0 160 61" fill="none" xmlns="http://www.w3.org/2000/svg">
<path d="M9 36.5H154.5L138.5 3.5H26.5L15 31L14 30.5H13.5L26 0H139.5L158.5 39L160 42L148 48.5H3.5L9 36.5Z" fill="#855D46" fill-opacity="0.74"/>
<path d="M30.5836 6.5L52.6673 55.25H47.5836L30.5836 18L13.0836 55.25H8.5L30.5836 6.5Z" fill="#F3EAEA"/>
<path d="M136.584 6.5L154 42L130 55.25H123L145.5 36.5L136.584 18L119.084 55.25H114.5L136.584 6.5Z" fill="#F3EAEA"/>
<path d="M81.5836 6.5H88.5L102 52L121 6.5H126.5L105.5 55.25H93.5L81.5836 18L64.0836 55.25H59.5L81.5836 6.5Z" fill="#F3EAEA"/>
<circle cx="13.5" cy="32.5" r="2" fill="#855D46" fill-opacity="0.74"/>
<circle cx="5.5" cy="52.5" r="2" fill="#855D46" fill-opacity="0.74"/>
<path d="M5.5 54.5L3.5 58.5H52.5L51 61H0L4 54L4.5 54.5H5H5.5Z" fill="#855D46" fill-opacity="0.74"/>
<path d="M68 36.5H72.8925L67.2576 48.5H62.5508L68 36.5Z" fill="#855D46" fill-opacity="0.74"/>
<path d="M108.469 36.5H113.582L108.418 48.5H103.457L108.469 36.5Z" fill="#855D46" fill-opacity="0.74"/>
<path d="M145.406 36.5H151.5L154 42L142.5 48.5H131.068L145.406 36.5Z" fill="#855D46" fill-opacity="0.74"/>
<path d="M16.9492 36.5H21.8417L16.2068 48.5H11.5L16.9492 36.5Z" fill="#855D46" fill-opacity="0.74"/>
</svg>
